<?xml version="1.0" encoding="utf-8"?>
<svg xmlns="http://www.w3.org/2000/svg" width="73.582" height="20.648" viewBox="0 0 73.582 20.648"><g transform="translate(-229 138.835)"><path d="M-23.838-20.01V-.54h4.233V-8.864c0-2.116,1.185-3.753,3.189-3.753,1.524,0,2.257.9,2.257,2.483V-.54h4.233v-9.9c0-3.612-2.286-5.39-5.333-5.39A5.308,5.308,0,0,0-19.605-13.8V-20.01ZM-.869-.2C3.477-.2,5.96-2.261,5.96-6.1v-9.4H1.727v9.538a2.415,2.415,0,0,1-2.6,2.6,2.394,2.394,0,0,1-2.568-2.6V-15.5H-7.669v9.4C-7.669-2.261-5.186-.2-.869-.2ZM8.359-20.01V-.54h3.894V-2.684A5.214,5.214,0,0,0,17.05-.2c3.443,0,6.264-2.2,6.264-7.816s-2.822-7.816-6.264-7.816a5.365,5.365,0,0,0-4.458,2v-6.18ZM15.78-3.361c-1.834,0-3.273-1.129-3.273-4.656s1.439-4.656,3.273-4.656C17.868-12.673,19-11.4,19-8.017,19-4.6,17.84-3.361,15.78-3.361Z" transform="translate(279.267 -117.986)" fill="#fff"/><circle cx="6.5" cy="6.5" r="6.5" transform="translate(229 -138.835)" fill="#fad55b" opacity="0.811"/><circle cx="6.5" cy="6.5" r="6.5" transform="translate(236 -138.835)" fill="#fad55b" opacity="0.316"/></g></svg>